<?xml version="1.0" encoding="utf-8" standalone="no"?>
<!DOCTYPE svg PUBLIC "-//W3C//DTD SVG 1.1//EN"
  "http://www.w3.org/Graphics/SVG/1.1/DTD/svg11.dtd">
<svg xmlns:xlink="http://www.w3.org/1999/xlink" width="504pt" height="172.8pt" viewBox="0 0 504 172.8" xmlns="http://www.w3.org/2000/svg" version="1.1">
 <metadata>
  <rdf:RDF xmlns:dc="http://purl.org/dc/elements/1.1/" xmlns:cc="http://creativecommons.org/ns#" xmlns:rdf="http://www.w3.org/1999/02/22-rdf-syntax-ns#">
   <cc:Work>
    <dc:type rdf:resource="http://purl.org/dc/dcmitype/StillImage"/>
    <dc:date>2026-05-25T23:46:13.099525</dc:date>
    <dc:format>image/svg+xml</dc:format>
    <dc:creator>
     <cc:Agent>
      <dc:title>Matplotlib v3.10.9, https://matplotlib.org/</dc:title>
     </cc:Agent>
    </dc:creator>
   </cc:Work>
  </rdf:RDF>
 </metadata>
 <defs>
  <style type="text/css">*{stroke-linejoin: round; stroke-linecap: butt}</style>
 </defs>
 <g id="figure_1">
  <g id="patch_1">
   <path d="M 0 172.8 
L 504 172.8 
L 504 0 
L 0 0 
z
" style="fill: #ffffff"/>
  </g>
  <g id="axes_1">
   <g id="patch_2">
    <path d="M 16.313143 86.0384 
L 74.201143 86.0384 
Q 75.579429 86.0384 75.579429 85.1232 
L 75.579429 55.8368 
Q 75.579429 54.9216 74.201143 54.9216 
L 16.313143 54.9216 
Q 14.934857 54.9216 14.934857 55.8368 
L 14.934857 85.1232 
Q 14.934857 86.0384 16.313143 86.0384 
z
" clip-path="url(#p370d42e754)" style="fill: #dce6f7; stroke: #1f3b73; stroke-width: 1.2; stroke-linejoin: miter"/>
   </g>
   <g id="patch_3">
    <path d="M 85.227429 86.0384 
L 143.115429 86.0384 
Q 144.493714 86.0384 144.493714 85.1232 
L 144.493714 55.8368 
Q 144.493714 54.9216 143.115429 54.9216 
L 85.227429 54.9216 
Q 83.849143 54.9216 83.849143 55.8368 
L 83.849143 85.1232 
Q 83.849143 86.0384 85.227429 86.0384 
z
" clip-path="url(#p370d42e754)" style="fill: #dce6f7; stroke: #1f3b73; stroke-width: 1.2; stroke-linejoin: miter"/>
   </g>
   <g id="patch_4">
    <path d="M 154.141714 86.0384 
L 212.029714 86.0384 
Q 213.408 86.0384 213.408 85.1232 
L 213.408 55.8368 
Q 213.408 54.9216 212.029714 54.9216 
L 154.141714 54.9216 
Q 152.763429 54.9216 152.763429 55.8368 
L 152.763429 85.1232 
Q 152.763429 86.0384 154.141714 86.0384 
z
" clip-path="url(#p370d42e754)" style="fill: #dce6f7; stroke: #1f3b73; stroke-width: 1.2; stroke-linejoin: miter"/>
   </g>
   <g id="patch_5">
    <path d="M 223.056 86.0384 
L 280.944 86.0384 
Q 282.322286 86.0384 282.322286 85.1232 
L 282.322286 55.8368 
Q 282.322286 54.9216 280.944 54.9216 
L 223.056 54.9216 
Q 221.677714 54.9216 221.677714 55.8368 
L 221.677714 85.1232 
Q 221.677714 86.0384 223.056 86.0384 
z
" clip-path="url(#p370d42e754)" style="fill: #dce6f7; stroke: #1f3b73; stroke-width: 1.2; stroke-linejoin: miter"/>
   </g>
   <g id="patch_6">
    <path d="M 291.970286 86.0384 
L 349.858286 86.0384 
Q 351.236571 86.0384 351.236571 85.1232 
L 351.236571 55.8368 
Q 351.236571 54.9216 349.858286 54.9216 
L 291.970286 54.9216 
Q 290.592 54.9216 290.592 55.8368 
L 290.592 85.1232 
Q 290.592 86.0384 291.970286 86.0384 
z
" clip-path="url(#p370d42e754)" style="fill: #dce6f7; stroke: #1f3b73; stroke-width: 1.2; stroke-linejoin: miter"/>
   </g>
   <g id="patch_7">
    <path d="M 360.884571 86.0384 
L 418.772571 86.0384 
Q 420.150857 86.0384 420.150857 85.1232 
L 420.150857 55.8368 
Q 420.150857 54.9216 418.772571 54.9216 
L 360.884571 54.9216 
Q 359.506286 54.9216 359.506286 55.8368 
L 359.506286 85.1232 
Q 359.506286 86.0384 360.884571 86.0384 
z
" clip-path="url(#p370d42e754)" style="fill: #dce6f7; stroke: #1f3b73; stroke-width: 1.2; stroke-linejoin: miter"/>
   </g>
   <g id="patch_8">
    <path d="M 429.798857 86.0384 
L 487.686857 86.0384 
Q 489.065143 86.0384 489.065143 85.1232 
L 489.065143 55.8368 
Q 489.065143 54.9216 487.686857 54.9216 
L 429.798857 54.9216 
Q 428.420571 54.9216 428.420571 55.8368 
L 428.420571 85.1232 
Q 428.420571 86.0384 429.798857 86.0384 
z
" clip-path="url(#p370d42e754)" style="fill: #dce6f7; stroke: #1f3b73; stroke-width: 1.2; stroke-linejoin: miter"/>
   </g>
   <g id="patch_9">
    <path d="M 76.201272 70.48 
Q 79.716096 70.48 81.88928 70.48 
" clip-path="url(#p370d42e754)" style="fill: none; stroke: #333333; stroke-width: 1.2; stroke-linecap: round"/>
    <path d="M 76.28928 67.68 
L 81.88928 70.48 
L 76.28928 73.28 
z
" clip-path="url(#p370d42e754)" style="fill: #333333; stroke: #333333; stroke-width: 1.2; stroke-linecap: round"/>
   </g>
   <g id="patch_10">
    <path d="M 145.115558 70.48 
Q 148.630382 70.48 150.803565 70.48 
" clip-path="url(#p370d42e754)" style="fill: none; stroke: #333333; stroke-width: 1.2; stroke-linecap: round"/>
    <path d="M 145.203565 67.68 
L 150.803565 70.48 
L 145.203565 73.28 
z
" clip-path="url(#p370d42e754)" style="fill: #333333; stroke: #333333; stroke-width: 1.2; stroke-linecap: round"/>
   </g>
   <g id="patch_11">
    <path d="M 214.029844 70.48 
Q 217.544668 70.48 219.717851 70.48 
" clip-path="url(#p370d42e754)" style="fill: none; stroke: #333333; stroke-width: 1.2; stroke-linecap: round"/>
    <path d="M 214.117851 67.68 
L 219.717851 70.48 
L 214.117851 73.28 
z
" clip-path="url(#p370d42e754)" style="fill: #333333; stroke: #333333; stroke-width: 1.2; stroke-linecap: round"/>
   </g>
   <g id="patch_12">
    <path d="M 282.944129 70.48 
Q 286.458953 70.48 288.632137 70.48 
" clip-path="url(#p370d42e754)" style="fill: none; stroke: #333333; stroke-width: 1.2; stroke-linecap: round"/>
    <path d="M 283.032137 67.68 
L 288.632137 70.48 
L 283.032137 73.28 
z
" clip-path="url(#p370d42e754)" style="fill: #333333; stroke: #333333; stroke-width: 1.2; stroke-linecap: round"/>
   </g>
   <g id="patch_13">
    <path d="M 351.858415 70.48 
Q 355.373239 70.48 357.546422 70.48 
" clip-path="url(#p370d42e754)" style="fill: none; stroke: #333333; stroke-width: 1.2; stroke-linecap: round"/>
    <path d="M 351.946422 67.68 
L 357.546422 70.48 
L 351.946422 73.28 
z
" clip-path="url(#p370d42e754)" style="fill: #333333; stroke: #333333; stroke-width: 1.2; stroke-linecap: round"/>
   </g>
   <g id="patch_14">
    <path d="M 420.772701 70.48 
Q 424.287525 70.48 426.460708 70.48 
" clip-path="url(#p370d42e754)" style="fill: none; stroke: #333333; stroke-width: 1.2; stroke-linecap: round"/>
    <path d="M 420.860708 67.68 
L 426.460708 70.48 
L 420.860708 73.28 
z
" clip-path="url(#p370d42e754)" style="fill: #333333; stroke: #333333; stroke-width: 1.2; stroke-linecap: round"/>
   </g>
   <g id="patch_15">
    <path d="M 214.097143 152.3904 
L 289.902857 152.3904 
Q 291.281143 152.3904 291.281143 151.4752 
L 291.281143 122.1888 
Q 291.281143 121.2736 289.902857 121.2736 
L 214.097143 121.2736 
Q 212.718857 121.2736 212.718857 122.1888 
L 212.718857 151.4752 
Q 212.718857 152.3904 214.097143 152.3904 
z
" clip-path="url(#p370d42e754)" style="fill: #f7e6dc; stroke: #7a3b1f; stroke-width: 1.2; stroke-linejoin: miter"/>
   </g>
   <g id="patch_16">
    <path d="M 250.028346 121.835315 
Q 148.628544 103.655995 48.109131 85.634515 
" clip-path="url(#p370d42e754)" style="fill: none; opacity: 0.7; stroke-dasharray: 2.96,1.28; stroke-dashoffset: 0; stroke: #7a3b1f; stroke-width: 0.8; stroke-linecap: round"/>
    <path d="M 51.693415 88.309006 
L 48.109131 85.634515 
L 52.399295 84.371782 
z
" clip-path="url(#p370d42e754)" style="fill: #7a3b1f; opacity: 0.7; stroke-dasharray: 2.96,1.28; stroke-dashoffset: 0; stroke: #7a3b1f; stroke-width: 0.8; stroke-linecap: round"/>
   </g>
   <g id="patch_17">
    <path d="M 252 120.184398 
Q 252 103.653163 252 88.016355 
" clip-path="url(#p370d42e754)" style="fill: none; opacity: 0.7; stroke-dasharray: 2.96,1.28; stroke-dashoffset: 0; stroke: #7a3b1f; stroke-width: 0.8; stroke-linecap: round"/>
    <path d="M 250 92.016355 
L 252 88.016355 
L 254 92.016355 
z
" clip-path="url(#p370d42e754)" style="fill: #7a3b1f; opacity: 0.7; stroke-dasharray: 2.96,1.28; stroke-dashoffset: 0; stroke: #7a3b1f; stroke-width: 0.8; stroke-linecap: round"/>
   </g>
   <g id="patch_18">
    <path d="M 253.971654 121.835315 
Q 355.371456 103.655995 455.890869 85.634515 
" clip-path="url(#p370d42e754)" style="fill: none; opacity: 0.7; stroke-dasharray: 2.96,1.28; stroke-dashoffset: 0; stroke: #7a3b1f; stroke-width: 0.8; stroke-linecap: round"/>
    <path d="M 451.600705 84.371782 
L 455.890869 85.634515 
L 452.306585 88.309006 
z
" clip-path="url(#p370d42e754)" style="fill: #7a3b1f; opacity: 0.7; stroke-dasharray: 2.96,1.28; stroke-dashoffset: 0; stroke: #7a3b1f; stroke-width: 0.8; stroke-linecap: round"/>
   </g>
   <g id="text_1">
    <!-- WSI -->
    <g style="fill: #1f3b73" transform="translate(34.281362 73.239375) scale(0.1 -0.1)">
     <defs>
      <path id="DejaVuSans-Bold-57" d="M 191 4666 
L 1344 4666 
L 2150 1275 
L 2950 4666 
L 4109 4666 
L 4909 1275 
L 5716 4666 
L 6859 4666 
L 5759 0 
L 4372 0 
L 3525 3547 
L 2688 0 
L 1300 0 
L 191 4666 
z
" transform="scale(0.015625)"/>
      <path id="DejaVuSans-Bold-53" d="M 3834 4519 
L 3834 3531 
Q 3450 3703 3084 3790 
Q 2719 3878 2394 3878 
Q 1963 3878 1756 3759 
Q 1550 3641 1550 3391 
Q 1550 3203 1689 3098 
Q 1828 2994 2194 2919 
L 2706 2816 
Q 3484 2659 3812 2340 
Q 4141 2022 4141 1434 
Q 4141 663 3683 286 
Q 3225 -91 2284 -91 
Q 1841 -91 1394 -6 
Q 947 78 500 244 
L 500 1259 
Q 947 1022 1364 901 
Q 1781 781 2169 781 
Q 2563 781 2772 912 
Q 2981 1044 2981 1288 
Q 2981 1506 2839 1625 
Q 2697 1744 2272 1838 
L 1806 1941 
Q 1106 2091 782 2419 
Q 459 2747 459 3303 
Q 459 4000 909 4375 
Q 1359 4750 2203 4750 
Q 2588 4750 2994 4692 
Q 3400 4634 3834 4519 
z
" transform="scale(0.015625)"/>
      <path id="DejaVuSans-Bold-49" d="M 588 4666 
L 1791 4666 
L 1791 0 
L 588 0 
L 588 4666 
z
" transform="scale(0.015625)"/>
     </defs>
     <use xlink:href="#DejaVuSans-Bold-57"/>
     <use xlink:href="#DejaVuSans-Bold-53" transform="translate(110.302734 0)"/>
     <use xlink:href="#DejaVuSans-Bold-49" transform="translate(182.324219 0)"/>
    </g>
   </g>
   <g id="text_2">
    <!-- TC -->
    <g style="fill: #1f3b73" transform="translate(107.09096 73.239375) scale(0.1 -0.1)">
     <defs>
      <path id="DejaVuSans-Bold-54" d="M 31 4666 
L 4331 4666 
L 4331 3756 
L 2784 3756 
L 2784 0 
L 1581 0 
L 1581 3756 
L 31 3756 
L 31 4666 
z
" transform="scale(0.015625)"/>
      <path id="DejaVuSans-Bold-43" d="M 4288 256 
Q 3956 84 3597 -3 
Q 3238 -91 2847 -91 
Q 1681 -91 1000 561 
Q 319 1213 319 2328 
Q 319 3447 1000 4098 
Q 1681 4750 2847 4750 
Q 3238 4750 3597 4662 
Q 3956 4575 4288 4403 
L 4288 3438 
Q 3953 3666 3628 3772 
Q 3303 3878 2944 3878 
Q 2300 3878 1931 3465 
Q 1563 3053 1563 2328 
Q 1563 1606 1931 1193 
Q 2300 781 2944 781 
Q 3303 781 3628 887 
Q 3953 994 4288 1222 
L 4288 256 
z
" transform="scale(0.015625)"/>
     </defs>
     <use xlink:href="#DejaVuSans-Bold-54"/>
     <use xlink:href="#DejaVuSans-Bold-43" transform="translate(68.212891 0)"/>
    </g>
   </g>
   <g id="text_3">
    <!-- PSF -->
    <g style="fill: #1f3b73" transform="translate(172.404464 73.239375) scale(0.1 -0.1)">
     <defs>
      <path id="DejaVuSans-Bold-50" d="M 588 4666 
L 2584 4666 
Q 3475 4666 3951 4270 
Q 4428 3875 4428 3144 
Q 4428 2409 3951 2014 
Q 3475 1619 2584 1619 
L 1791 1619 
L 1791 0 
L 588 0 
L 588 4666 
z
M 1791 3794 
L 1791 2491 
L 2456 2491 
Q 2806 2491 2997 2661 
Q 3188 2831 3188 3144 
Q 3188 3456 2997 3625 
Q 2806 3794 2456 3794 
L 1791 3794 
z
" transform="scale(0.015625)"/>
      <path id="DejaVuSans-Bold-46" d="M 588 4666 
L 3834 4666 
L 3834 3756 
L 1791 3756 
L 1791 2888 
L 3713 2888 
L 3713 1978 
L 1791 1978 
L 1791 0 
L 588 0 
L 588 4666 
z
" transform="scale(0.015625)"/>
     </defs>
     <use xlink:href="#DejaVuSans-Bold-50"/>
     <use xlink:href="#DejaVuSans-Bold-53" transform="translate(73.291016 0)"/>
     <use xlink:href="#DejaVuSans-Bold-46" transform="translate(145.3125 0)"/>
    </g>
   </g>
   <g id="text_4">
    <!-- IF -->
    <g style="fill: #1f3b73" transform="translate(246.724219 73.239375) scale(0.1 -0.1)">
     <use xlink:href="#DejaVuSans-Bold-49"/>
     <use xlink:href="#DejaVuSans-Bold-46" transform="translate(37.207031 0)"/>
    </g>
   </g>
   <g id="text_5">
    <!-- EG -->
    <g style="fill: #1f3b73" transform="translate(313.394754 73.239375) scale(0.1 -0.1)">
     <defs>
      <path id="DejaVuSans-Bold-45" d="M 588 4666 
L 3834 4666 
L 3834 3756 
L 1791 3756 
L 1791 2888 
L 3713 2888 
L 3713 1978 
L 1791 1978 
L 1791 909 
L 3903 909 
L 3903 0 
L 588 0 
L 588 4666 
z
" transform="scale(0.015625)"/>
      <path id="DejaVuSans-Bold-47" d="M 4781 347 
Q 4331 128 3847 18 
Q 3363 -91 2847 -91 
Q 1681 -91 1000 561 
Q 319 1213 319 2328 
Q 319 3456 1012 4103 
Q 1706 4750 2913 4750 
Q 3378 4750 3804 4662 
Q 4231 4575 4609 4403 
L 4609 3438 
Q 4219 3659 3833 3768 
Q 3447 3878 3059 3878 
Q 2341 3878 1952 3476 
Q 1563 3075 1563 2328 
Q 1563 1588 1938 1184 
Q 2313 781 3003 781 
Q 3191 781 3352 804 
Q 3513 828 3641 878 
L 3641 1784 
L 2906 1784 
L 2906 2591 
L 4781 2591 
L 4781 347 
z
" transform="scale(0.015625)"/>
     </defs>
     <use xlink:href="#DejaVuSans-Bold-45"/>
     <use xlink:href="#DejaVuSans-Bold-47" transform="translate(68.310547 0)"/>
    </g>
   </g>
   <g id="text_6">
    <!-- SCE -->
    <g style="fill: #1f3b73" transform="translate(379.142634 73.239375) scale(0.1 -0.1)">
     <use xlink:href="#DejaVuSans-Bold-53"/>
     <use xlink:href="#DejaVuSans-Bold-43" transform="translate(72.021484 0)"/>
     <use xlink:href="#DejaVuSans-Bold-45" transform="translate(145.410156 0)"/>
    </g>
   </g>
   <g id="text_7">
    <!-- DR -->
    <g style="fill: #1f3b73" transform="translate(450.742076 73.239375) scale(0.1 -0.1)">
     <defs>
      <path id="DejaVuSans-Bold-44" d="M 1791 3756 
L 1791 909 
L 2222 909 
Q 2959 909 3348 1275 
Q 3738 1641 3738 2338 
Q 3738 3031 3350 3393 
Q 2963 3756 2222 3756 
L 1791 3756 
z
M 588 4666 
L 1856 4666 
Q 2919 4666 3439 4514 
Q 3959 4363 4331 4000 
Q 4659 3684 4818 3271 
Q 4978 2859 4978 2338 
Q 4978 1809 4818 1395 
Q 4659 981 4331 666 
Q 3956 303 3431 151 
Q 2906 0 1856 0 
L 588 0 
L 588 4666 
z
" transform="scale(0.015625)"/>
      <path id="DejaVuSans-Bold-52" d="M 2297 2597 
Q 2675 2597 2839 2737 
Q 3003 2878 3003 3200 
Q 3003 3519 2839 3656 
Q 2675 3794 2297 3794 
L 1791 3794 
L 1791 2597 
L 2297 2597 
z
M 1791 1766 
L 1791 0 
L 588 0 
L 588 4666 
L 2425 4666 
Q 3347 4666 3776 4356 
Q 4206 4047 4206 3378 
Q 4206 2916 3982 2619 
Q 3759 2322 3309 2181 
Q 3556 2125 3751 1926 
Q 3947 1728 4147 1325 
L 4800 0 
L 3519 0 
L 2950 1159 
Q 2778 1509 2601 1637 
Q 2425 1766 2131 1766 
L 1791 1766 
z
" transform="scale(0.015625)"/>
     </defs>
     <use xlink:href="#DejaVuSans-Bold-44"/>
     <use xlink:href="#DejaVuSans-Bold-52" transform="translate(83.007812 0)"/>
    </g>
   </g>
   <g id="text_8">
    <!-- OI (observer) -->
    <g style="fill: #7a3b1f" transform="translate(218.353359 139.315437) scale(0.09 -0.09)">
     <defs>
      <path id="DejaVuSans-Bold-4f" d="M 2719 3878 
Q 2169 3878 1866 3472 
Q 1563 3066 1563 2328 
Q 1563 1594 1866 1187 
Q 2169 781 2719 781 
Q 3272 781 3575 1187 
Q 3878 1594 3878 2328 
Q 3878 3066 3575 3472 
Q 3272 3878 2719 3878 
z
M 2719 4750 
Q 3844 4750 4481 4106 
Q 5119 3463 5119 2328 
Q 5119 1197 4481 553 
Q 3844 -91 2719 -91 
Q 1597 -91 958 553 
Q 319 1197 319 2328 
Q 319 3463 958 4106 
Q 1597 4750 2719 4750 
z
" transform="scale(0.015625)"/>
      <path id="DejaVuSans-Bold-20" transform="scale(0.015625)"/>
      <path id="DejaVuSans-Bold-28" d="M 2413 -844 
L 1484 -844 
Q 1006 -72 778 623 
Q 550 1319 550 2003 
Q 550 2688 779 3389 
Q 1009 4091 1484 4856 
L 2413 4856 
Q 2013 4116 1813 3408 
Q 1613 2700 1613 2009 
Q 1613 1319 1811 609 
Q 2009 -100 2413 -844 
z
" transform="scale(0.015625)"/>
      <path id="DejaVuSans-Bold-6f" d="M 2203 2784 
Q 1831 2784 1636 2517 
Q 1441 2250 1441 1747 
Q 1441 1244 1636 976 
Q 1831 709 2203 709 
Q 2569 709 2762 976 
Q 2956 1244 2956 1747 
Q 2956 2250 2762 2517 
Q 2569 2784 2203 2784 
z
M 2203 3584 
Q 3106 3584 3614 3096 
Q 4122 2609 4122 1747 
Q 4122 884 3614 396 
Q 3106 -91 2203 -91 
Q 1297 -91 786 396 
Q 275 884 275 1747 
Q 275 2609 786 3096 
Q 1297 3584 2203 3584 
z
" transform="scale(0.015625)"/>
      <path id="DejaVuSans-Bold-62" d="M 2400 722 
Q 2759 722 2948 984 
Q 3138 1247 3138 1747 
Q 3138 2247 2948 2509 
Q 2759 2772 2400 2772 
Q 2041 2772 1848 2508 
Q 1656 2244 1656 1747 
Q 1656 1250 1848 986 
Q 2041 722 2400 722 
z
M 1656 2988 
Q 1888 3294 2169 3439 
Q 2450 3584 2816 3584 
Q 3463 3584 3878 3070 
Q 4294 2556 4294 1747 
Q 4294 938 3878 423 
Q 3463 -91 2816 -91 
Q 2450 -91 2169 54 
Q 1888 200 1656 506 
L 1656 0 
L 538 0 
L 538 4863 
L 1656 4863 
L 1656 2988 
z
" transform="scale(0.015625)"/>
      <path id="DejaVuSans-Bold-73" d="M 3272 3391 
L 3272 2541 
Q 2913 2691 2578 2766 
Q 2244 2841 1947 2841 
Q 1628 2841 1473 2761 
Q 1319 2681 1319 2516 
Q 1319 2381 1436 2309 
Q 1553 2238 1856 2203 
L 2053 2175 
Q 2913 2066 3209 1816 
Q 3506 1566 3506 1031 
Q 3506 472 3093 190 
Q 2681 -91 1863 -91 
Q 1516 -91 1145 -36 
Q 775 19 384 128 
L 384 978 
Q 719 816 1070 734 
Q 1422 653 1784 653 
Q 2113 653 2278 743 
Q 2444 834 2444 1013 
Q 2444 1163 2330 1236 
Q 2216 1309 1875 1350 
L 1678 1375 
Q 931 1469 631 1722 
Q 331 1975 331 2491 
Q 331 3047 712 3315 
Q 1094 3584 1881 3584 
Q 2191 3584 2531 3537 
Q 2872 3491 3272 3391 
z
" transform="scale(0.015625)"/>
      <path id="DejaVuSans-Bold-65" d="M 4031 1759 
L 4031 1441 
L 1416 1441 
Q 1456 1047 1700 850 
Q 1944 653 2381 653 
Q 2734 653 3104 758 
Q 3475 863 3866 1075 
L 3866 213 
Q 3469 63 3072 -14 
Q 2675 -91 2278 -91 
Q 1328 -91 801 392 
Q 275 875 275 1747 
Q 275 2603 792 3093 
Q 1309 3584 2216 3584 
Q 3041 3584 3536 3087 
Q 4031 2591 4031 1759 
z
M 2881 2131 
Q 2881 2450 2695 2645 
Q 2509 2841 2209 2841 
Q 1884 2841 1681 2658 
Q 1478 2475 1428 2131 
L 2881 2131 
z
" transform="scale(0.015625)"/>
      <path id="DejaVuSans-Bold-72" d="M 3138 2547 
Q 2991 2616 2845 2648 
Q 2700 2681 2553 2681 
Q 2122 2681 1889 2404 
Q 1656 2128 1656 1613 
L 1656 0 
L 538 0 
L 538 3500 
L 1656 3500 
L 1656 2925 
Q 1872 3269 2151 3426 
Q 2431 3584 2822 3584 
Q 2878 3584 2943 3579 
Q 3009 3575 3134 3559 
L 3138 2547 
z
" transform="scale(0.015625)"/>
      <path id="DejaVuSans-Bold-76" d="M 97 3500 
L 1216 3500 
L 2088 1081 
L 2956 3500 
L 4078 3500 
L 2700 0 
L 1472 0 
L 97 3500 
z
" transform="scale(0.015625)"/>
      <path id="DejaVuSans-Bold-29" d="M 513 -844 
Q 913 -100 1113 609 
Q 1313 1319 1313 2009 
Q 1313 2700 1113 3408 
Q 913 4116 513 4856 
L 1441 4856 
Q 1916 4091 2145 3389 
Q 2375 2688 2375 2003 
Q 2375 1319 2147 623 
Q 1919 -72 1441 -844 
L 513 -844 
z
" transform="scale(0.015625)"/>
     </defs>
     <use xlink:href="#DejaVuSans-Bold-4f"/>
     <use xlink:href="#DejaVuSans-Bold-49" transform="translate(85.009766 0)"/>
     <use xlink:href="#DejaVuSans-Bold-20" transform="translate(122.216797 0)"/>
     <use xlink:href="#DejaVuSans-Bold-28" transform="translate(157.03125 0)"/>
     <use xlink:href="#DejaVuSans-Bold-6f" transform="translate(202.734375 0)"/>
     <use xlink:href="#DejaVuSans-Bold-62" transform="translate(271.435547 0)"/>
     <use xlink:href="#DejaVuSans-Bold-73" transform="translate(343.017578 0)"/>
     <use xlink:href="#DejaVuSans-Bold-65" transform="translate(402.539062 0)"/>
     <use xlink:href="#DejaVuSans-Bold-72" transform="translate(470.361328 0)"/>
     <use xlink:href="#DejaVuSans-Bold-76" transform="translate(519.677734 0)"/>
     <use xlink:href="#DejaVuSans-Bold-65" transform="translate(584.863281 0)"/>
     <use xlink:href="#DejaVuSans-Bold-72" transform="translate(652.685547 0)"/>
     <use xlink:href="#DejaVuSans-Bold-29" transform="translate(702.001953 0)"/>
    </g>
   </g>
   <g id="text_9">
    <!-- Benchmark domain dependency pipeline (OI as side channel) -->
    <g transform="translate(98.025 18.72) scale(0.1 -0.1)">
     <defs>
      <path id="DejaVuSans-42" d="M 1259 2228 
L 1259 519 
L 2272 519 
Q 2781 519 3026 730 
Q 3272 941 3272 1375 
Q 3272 1813 3026 2020 
Q 2781 2228 2272 2228 
L 1259 2228 
z
M 1259 4147 
L 1259 2741 
L 2194 2741 
Q 2656 2741 2882 2914 
Q 3109 3088 3109 3444 
Q 3109 3797 2882 3972 
Q 2656 4147 2194 4147 
L 1259 4147 
z
M 628 4666 
L 2241 4666 
Q 2963 4666 3353 4366 
Q 3744 4066 3744 3513 
Q 3744 3084 3544 2831 
Q 3344 2578 2956 2516 
Q 3422 2416 3680 2098 
Q 3938 1781 3938 1306 
Q 3938 681 3513 340 
Q 3088 0 2303 0 
L 628 0 
L 628 4666 
z
" transform="scale(0.015625)"/>
      <path id="DejaVuSans-65" d="M 3597 1894 
L 3597 1613 
L 953 1613 
Q 991 1019 1311 708 
Q 1631 397 2203 397 
Q 2534 397 2845 478 
Q 3156 559 3463 722 
L 3463 178 
Q 3153 47 2828 -22 
Q 2503 -91 2169 -91 
Q 1331 -91 842 396 
Q 353 884 353 1716 
Q 353 2575 817 3079 
Q 1281 3584 2069 3584 
Q 2775 3584 3186 3129 
Q 3597 2675 3597 1894 
z
M 3022 2063 
Q 3016 2534 2758 2815 
Q 2500 3097 2075 3097 
Q 1594 3097 1305 2825 
Q 1016 2553 972 2059 
L 3022 2063 
z
" transform="scale(0.015625)"/>
      <path id="DejaVuSans-6e" d="M 3513 2113 
L 3513 0 
L 2938 0 
L 2938 2094 
Q 2938 2591 2744 2837 
Q 2550 3084 2163 3084 
Q 1697 3084 1428 2787 
Q 1159 2491 1159 1978 
L 1159 0 
L 581 0 
L 581 3500 
L 1159 3500 
L 1159 2956 
Q 1366 3272 1645 3428 
Q 1925 3584 2291 3584 
Q 2894 3584 3203 3211 
Q 3513 2838 3513 2113 
z
" transform="scale(0.015625)"/>
      <path id="DejaVuSans-63" d="M 3122 3366 
L 3122 2828 
Q 2878 2963 2633 3030 
Q 2388 3097 2138 3097 
Q 1578 3097 1268 2742 
Q 959 2388 959 1747 
Q 959 1106 1268 751 
Q 1578 397 2138 397 
Q 2388 397 2633 464 
Q 2878 531 3122 666 
L 3122 134 
Q 2881 22 2623 -34 
Q 2366 -91 2075 -91 
Q 1284 -91 818 406 
Q 353 903 353 1747 
Q 353 2603 823 3093 
Q 1294 3584 2113 3584 
Q 2378 3584 2631 3529 
Q 2884 3475 3122 3366 
z
" transform="scale(0.015625)"/>
      <path id="DejaVuSans-68" d="M 3513 2113 
L 3513 0 
L 2938 0 
L 2938 2094 
Q 2938 2591 2744 2837 
Q 2550 3084 2163 3084 
Q 1697 3084 1428 2787 
Q 1159 2491 1159 1978 
L 1159 0 
L 581 0 
L 581 4863 
L 1159 4863 
L 1159 2956 
Q 1366 3272 1645 3428 
Q 1925 3584 2291 3584 
Q 2894 3584 3203 3211 
Q 3513 2838 3513 2113 
z
" transform="scale(0.015625)"/>
      <path id="DejaVuSans-6d" d="M 3328 2828 
Q 3544 3216 3844 3400 
Q 4144 3584 4550 3584 
Q 5097 3584 5394 3201 
Q 5691 2819 5691 2113 
L 5691 0 
L 5113 0 
L 5113 2094 
Q 5113 2597 4934 2840 
Q 4756 3084 4391 3084 
Q 3944 3084 3684 2787 
Q 3425 2491 3425 1978 
L 3425 0 
L 2847 0 
L 2847 2094 
Q 2847 2600 2669 2842 
Q 2491 3084 2119 3084 
Q 1678 3084 1418 2786 
Q 1159 2488 1159 1978 
L 1159 0 
L 581 0 
L 581 3500 
L 1159 3500 
L 1159 2956 
Q 1356 3278 1631 3431 
Q 1906 3584 2284 3584 
Q 2666 3584 2933 3390 
Q 3200 3197 3328 2828 
z
" transform="scale(0.015625)"/>
      <path id="DejaVuSans-61" d="M 2194 1759 
Q 1497 1759 1228 1600 
Q 959 1441 959 1056 
Q 959 750 1161 570 
Q 1363 391 1709 391 
Q 2188 391 2477 730 
Q 2766 1069 2766 1631 
L 2766 1759 
L 2194 1759 
z
M 3341 1997 
L 3341 0 
L 2766 0 
L 2766 531 
Q 2569 213 2275 61 
Q 1981 -91 1556 -91 
Q 1019 -91 701 211 
Q 384 513 384 1019 
Q 384 1609 779 1909 
Q 1175 2209 1959 2209 
L 2766 2209 
L 2766 2266 
Q 2766 2663 2505 2880 
Q 2244 3097 1772 3097 
Q 1472 3097 1187 3025 
Q 903 2953 641 2809 
L 641 3341 
Q 956 3463 1253 3523 
Q 1550 3584 1831 3584 
Q 2591 3584 2966 3190 
Q 3341 2797 3341 1997 
z
" transform="scale(0.015625)"/>
      <path id="DejaVuSans-72" d="M 2631 2963 
Q 2534 3019 2420 3045 
Q 2306 3072 2169 3072 
Q 1681 3072 1420 2755 
Q 1159 2438 1159 1844 
L 1159 0 
L 581 0 
L 581 3500 
L 1159 3500 
L 1159 2956 
Q 1341 3275 1631 3429 
Q 1922 3584 2338 3584 
Q 2397 3584 2469 3576 
Q 2541 3569 2628 3553 
L 2631 2963 
z
" transform="scale(0.015625)"/>
      <path id="DejaVuSans-6b" d="M 581 4863 
L 1159 4863 
L 1159 1991 
L 2875 3500 
L 3609 3500 
L 1753 1863 
L 3688 0 
L 2938 0 
L 1159 1709 
L 1159 0 
L 581 0 
L 581 4863 
z
" transform="scale(0.015625)"/>
      <path id="DejaVuSans-20" transform="scale(0.015625)"/>
      <path id="DejaVuSans-64" d="M 2906 2969 
L 2906 4863 
L 3481 4863 
L 3481 0 
L 2906 0 
L 2906 525 
Q 2725 213 2448 61 
Q 2172 -91 1784 -91 
Q 1150 -91 751 415 
Q 353 922 353 1747 
Q 353 2572 751 3078 
Q 1150 3584 1784 3584 
Q 2172 3584 2448 3432 
Q 2725 3281 2906 2969 
z
M 947 1747 
Q 947 1113 1208 752 
Q 1469 391 1925 391 
Q 2381 391 2643 752 
Q 2906 1113 2906 1747 
Q 2906 2381 2643 2742 
Q 2381 3103 1925 3103 
Q 1469 3103 1208 2742 
Q 947 2381 947 1747 
z
" transform="scale(0.015625)"/>
      <path id="DejaVuSans-6f" d="M 1959 3097 
Q 1497 3097 1228 2736 
Q 959 2375 959 1747 
Q 959 1119 1226 758 
Q 1494 397 1959 397 
Q 2419 397 2687 759 
Q 2956 1122 2956 1747 
Q 2956 2369 2687 2733 
Q 2419 3097 1959 3097 
z
M 1959 3584 
Q 2709 3584 3137 3096 
Q 3566 2609 3566 1747 
Q 3566 888 3137 398 
Q 2709 -91 1959 -91 
Q 1206 -91 779 398 
Q 353 888 353 1747 
Q 353 2609 779 3096 
Q 1206 3584 1959 3584 
z
" transform="scale(0.015625)"/>
      <path id="DejaVuSans-69" d="M 603 3500 
L 1178 3500 
L 1178 0 
L 603 0 
L 603 3500 
z
M 603 4863 
L 1178 4863 
L 1178 4134 
L 603 4134 
L 603 4863 
z
" transform="scale(0.015625)"/>
      <path id="DejaVuSans-70" d="M 1159 525 
L 1159 -1331 
L 581 -1331 
L 581 3500 
L 1159 3500 
L 1159 2969 
Q 1341 3281 1617 3432 
Q 1894 3584 2278 3584 
Q 2916 3584 3314 3078 
Q 3713 2572 3713 1747 
Q 3713 922 3314 415 
Q 2916 -91 2278 -91 
Q 1894 -91 1617 61 
Q 1341 213 1159 525 
z
M 3116 1747 
Q 3116 2381 2855 2742 
Q 2594 3103 2138 3103 
Q 1681 3103 1420 2742 
Q 1159 2381 1159 1747 
Q 1159 1113 1420 752 
Q 1681 391 2138 391 
Q 2594 391 2855 752 
Q 3116 1113 3116 1747 
z
" transform="scale(0.015625)"/>
      <path id="DejaVuSans-79" d="M 2059 -325 
Q 1816 -950 1584 -1140 
Q 1353 -1331 966 -1331 
L 506 -1331 
L 506 -850 
L 844 -850 
Q 1081 -850 1212 -737 
Q 1344 -625 1503 -206 
L 1606 56 
L 191 3500 
L 800 3500 
L 1894 763 
L 2988 3500 
L 3597 3500 
L 2059 -325 
z
" transform="scale(0.015625)"/>
      <path id="DejaVuSans-6c" d="M 603 4863 
L 1178 4863 
L 1178 0 
L 603 0 
L 603 4863 
z
" transform="scale(0.015625)"/>
      <path id="DejaVuSans-28" d="M 1984 4856 
Q 1566 4138 1362 3434 
Q 1159 2731 1159 2009 
Q 1159 1288 1364 580 
Q 1569 -128 1984 -844 
L 1484 -844 
Q 1016 -109 783 600 
Q 550 1309 550 2009 
Q 550 2706 781 3412 
Q 1013 4119 1484 4856 
L 1984 4856 
z
" transform="scale(0.015625)"/>
      <path id="DejaVuSans-4f" d="M 2522 4238 
Q 1834 4238 1429 3725 
Q 1025 3213 1025 2328 
Q 1025 1447 1429 934 
Q 1834 422 2522 422 
Q 3209 422 3611 934 
Q 4013 1447 4013 2328 
Q 4013 3213 3611 3725 
Q 3209 4238 2522 4238 
z
M 2522 4750 
Q 3503 4750 4090 4092 
Q 4678 3434 4678 2328 
Q 4678 1225 4090 567 
Q 3503 -91 2522 -91 
Q 1538 -91 948 565 
Q 359 1222 359 2328 
Q 359 3434 948 4092 
Q 1538 4750 2522 4750 
z
" transform="scale(0.015625)"/>
      <path id="DejaVuSans-49" d="M 628 4666 
L 1259 4666 
L 1259 0 
L 628 0 
L 628 4666 
z
" transform="scale(0.015625)"/>
      <path id="DejaVuSans-73" d="M 2834 3397 
L 2834 2853 
Q 2591 2978 2328 3040 
Q 2066 3103 1784 3103 
Q 1356 3103 1142 2972 
Q 928 2841 928 2578 
Q 928 2378 1081 2264 
Q 1234 2150 1697 2047 
L 1894 2003 
Q 2506 1872 2764 1633 
Q 3022 1394 3022 966 
Q 3022 478 2636 193 
Q 2250 -91 1575 -91 
Q 1294 -91 989 -36 
Q 684 19 347 128 
L 347 722 
Q 666 556 975 473 
Q 1284 391 1588 391 
Q 1994 391 2212 530 
Q 2431 669 2431 922 
Q 2431 1156 2273 1281 
Q 2116 1406 1581 1522 
L 1381 1569 
Q 847 1681 609 1914 
Q 372 2147 372 2553 
Q 372 3047 722 3315 
Q 1072 3584 1716 3584 
Q 2034 3584 2315 3537 
Q 2597 3491 2834 3397 
z
" transform="scale(0.015625)"/>
      <path id="DejaVuSans-29" d="M 513 4856 
L 1013 4856 
Q 1481 4119 1714 3412 
Q 1947 2706 1947 2009 
Q 1947 1309 1714 600 
Q 1481 -109 1013 -844 
L 513 -844 
Q 928 -128 1133 580 
Q 1338 1288 1338 2009 
Q 1338 2731 1133 3434 
Q 928 4138 513 4856 
z
" transform="scale(0.015625)"/>
     </defs>
     <use xlink:href="#DejaVuSans-42"/>
     <use xlink:href="#DejaVuSans-65" transform="translate(68.603516 0)"/>
     <use xlink:href="#DejaVuSans-6e" transform="translate(130.126953 0)"/>
     <use xlink:href="#DejaVuSans-63" transform="translate(193.505859 0)"/>
     <use xlink:href="#DejaVuSans-68" transform="translate(248.486328 0)"/>
     <use xlink:href="#DejaVuSans-6d" transform="translate(311.865234 0)"/>
     <use xlink:href="#DejaVuSans-61" transform="translate(409.277344 0)"/>
     <use xlink:href="#DejaVuSans-72" transform="translate(470.556641 0)"/>
     <use xlink:href="#DejaVuSans-6b" transform="translate(511.669922 0)"/>
     <use xlink:href="#DejaVuSans-20" transform="translate(569.580078 0)"/>
     <use xlink:href="#DejaVuSans-64" transform="translate(601.367188 0)"/>
     <use xlink:href="#DejaVuSans-6f" transform="translate(664.84375 0)"/>
     <use xlink:href="#DejaVuSans-6d" transform="translate(726.025391 0)"/>
     <use xlink:href="#DejaVuSans-61" transform="translate(823.4375 0)"/>
     <use xlink:href="#DejaVuSans-69" transform="translate(884.716797 0)"/>
     <use xlink:href="#DejaVuSans-6e" transform="translate(912.5 0)"/>
     <use xlink:href="#DejaVuSans-20" transform="translate(975.878906 0)"/>
     <use xlink:href="#DejaVuSans-64" transform="translate(1007.666016 0)"/>
     <use xlink:href="#DejaVuSans-65" transform="translate(1071.142578 0)"/>
     <use xlink:href="#DejaVuSans-70" transform="translate(1132.666016 0)"/>
     <use xlink:href="#DejaVuSans-65" transform="translate(1196.142578 0)"/>
     <use xlink:href="#DejaVuSans-6e" transform="translate(1257.666016 0)"/>
     <use xlink:href="#DejaVuSans-64" transform="translate(1321.044922 0)"/>
     <use xlink:href="#DejaVuSans-65" transform="translate(1384.521484 0)"/>
     <use xlink:href="#DejaVuSans-6e" transform="translate(1446.044922 0)"/>
     <use xlink:href="#DejaVuSans-63" transform="translate(1509.423828 0)"/>
     <use xlink:href="#DejaVuSans-79" transform="translate(1564.404297 0)"/>
     <use xlink:href="#DejaVuSans-20" transform="translate(1623.583984 0)"/>
     <use xlink:href="#DejaVuSans-70" transform="translate(1655.371094 0)"/>
     <use xlink:href="#DejaVuSans-69" transform="translate(1718.847656 0)"/>
     <use xlink:href="#DejaVuSans-70" transform="translate(1746.630859 0)"/>
     <use xlink:href="#DejaVuSans-65" transform="translate(1810.107422 0)"/>
     <use xlink:href="#DejaVuSans-6c" transform="translate(1871.630859 0)"/>
     <use xlink:href="#DejaVuSans-69" transform="translate(1899.414062 0)"/>
     <use xlink:href="#DejaVuSans-6e" transform="translate(1927.197266 0)"/>
     <use xlink:href="#DejaVuSans-65" transform="translate(1990.576172 0)"/>
     <use xlink:href="#DejaVuSans-20" transform="translate(2052.099609 0)"/>
     <use xlink:href="#DejaVuSans-28" transform="translate(2083.886719 0)"/>
     <use xlink:href="#DejaVuSans-4f" transform="translate(2122.900391 0)"/>
     <use xlink:href="#DejaVuSans-49" transform="translate(2201.611328 0)"/>
     <use xlink:href="#DejaVuSans-20" transform="translate(2231.103516 0)"/>
     <use xlink:href="#DejaVuSans-61" transform="translate(2262.890625 0)"/>
     <use xlink:href="#DejaVuSans-73" transform="translate(2324.169922 0)"/>
     <use xlink:href="#DejaVuSans-20" transform="translate(2376.269531 0)"/>
     <use xlink:href="#DejaVuSans-73" transform="translate(2408.056641 0)"/>
     <use xlink:href="#DejaVuSans-69" transform="translate(2460.15625 0)"/>
     <use xlink:href="#DejaVuSans-64" transform="translate(2487.939453 0)"/>
     <use xlink:href="#DejaVuSans-65" transform="translate(2551.416016 0)"/>
     <use xlink:href="#DejaVuSans-20" transform="translate(2612.939453 0)"/>
     <use xlink:href="#DejaVuSans-63" transform="translate(2644.726562 0)"/>
     <use xlink:href="#DejaVuSans-68" transform="translate(2699.707031 0)"/>
     <use xlink:href="#DejaVuSans-61" transform="translate(2763.085938 0)"/>
     <use xlink:href="#DejaVuSans-6e" transform="translate(2824.365234 0)"/>
     <use xlink:href="#DejaVuSans-6e" transform="translate(2887.744141 0)"/>
     <use xlink:href="#DejaVuSans-65" transform="translate(2951.123047 0)"/>
     <use xlink:href="#DejaVuSans-6c" transform="translate(3012.646484 0)"/>
     <use xlink:href="#DejaVuSans-29" transform="translate(3040.429688 0)"/>
    </g>
   </g>
  </g>
 </g>
 <defs>
  <clipPath id="p370d42e754">
   <rect x="10.8" y="24.72" width="482.4" height="137.28"/>
  </clipPath>
 </defs>
</svg>
